# xmcd
#
# Track frame offsets: 
#        150
#        10456
#        22057
#        33678
#        44921
#        56307
#        66488
#        76693
#        87254
#        98314
#
# Disc length: 1452 seconds
#
# Revision: 0
# Processed by: cddbd v1.5.2PL0 Copyright (c) Steve Scherf et al.
# Submitted via: ExactAudioCopy v1.0b1
#
DISCID=7c05aa0a
DTITLE=Porter Wagoner - I'm Day Dreaming Tonight
DYEAR=1965
DGENRE=Country
TTITLE0=I'm Day Dreamin' Tonight
TTITLE1=Living In The Past
TTITLE2=Be Glad You Ain't Me
TTITLE3=Cold Dark Waters
TTITLE4=Your Kind Of People
TTITLE5=Trademark
TTITLE6=That's It
TTITLE7=Bringing Home The Bacon
TTITLE8=Takin' Chances
TTITLE9=Dig That Crazy Moon
EXTD=
EXTT0=
EXTT1=
EXTT2=
EXTT3=
EXTT4=
EXTT5=
EXTT6=
EXTT7=
EXTT8=
EXTT9=
PLAYORDER=
